<svg xmlns="http://www.w3.org/2000/svg" viewBox="0 0 500 500" width="100%" height="100%">
  <defs>
    <polygon id="star" points="0,-160 2.5,-152 10,-152 4,-147 6,-139 0,-143 -6,-139 -4,-147 -10,-152 -2.5,-152" fill="#FCC734"/>
    <circle id="dot" cx="0" cy="-150" r="7" fill="#FCC734"/>
  </defs>

  <circle cx="250" cy="254" r="190" fill="#EC9C21"/>
  
  <circle cx="250" cy="250" r="190" fill="#FCC734"/>
  
  <circle cx="250" cy="250" r="165" fill="#EC9C21"/>
  
  <circle cx="250" cy="250" r="135" fill="#FCC734"/>

  <use href="#dot" x="250" y="250" transform="rotate(0 250 250)"/>
  <use href="#star" x="250" y="250" transform="rotate(22.5 250 250)"/>
  <use href="#dot" x="250" y="250" transform="rotate(45 250 250)"/>
  <use href="#star" x="250" y="250" transform="rotate(67.5 250 250)"/>
  <use href="#dot" x="250" y="250" transform="rotate(90 250 250)"/>
  <use href="#star" x="250" y="250" transform="rotate(112.5 250 250)"/>
  <use href="#dot" x="250" y="250" transform="rotate(135 250 250)"/>
  <use href="#star" x="250" y="250" transform="rotate(157.5 250 250)"/>
  <use href="#dot" x="250" y="250" transform="rotate(180 250 250)"/>
  <use href="#star" x="250" y="250" transform="rotate(202.5 250 250)"/>
  <use href="#dot" x="250" y="250" transform="rotate(225 250 250)"/>
  <use href="#star" x="250" y="250" transform="rotate(247.5 250 250)"/>
  <use href="#dot" x="250" y="250" transform="rotate(270 250 250)"/>
  <use href="#star" x="250" y="250" transform="rotate(292.5 250 250)"/>
  <use href="#dot" x="250" y="250" transform="rotate(315 250 250)"/>
  <use href="#star" x="250" y="250" transform="rotate(337.5 250 250)"/>

  <polygon points="165,212.5 335,212.5 375,177.5 205,177.5" fill="#DC8C1A"/>
  <polygon points="125,267.5 295,267.5 335,232.5 165,232.5" fill="#DC8C1A"/>
  <polygon points="165,322.5 335,322.5 375,287.5 205,287.5" fill="#DC8C1A"/>
</svg>
