<?xml version="1.0" encoding="UTF-8"?> <svg xmlns="http://www.w3.org/2000/svg" version="1.2" viewBox="0 0 160 160" width="1024" height="1024"><title>usgold</title><defs><clipPath id="cp1"><path d="m158.95 81.02c0 43.09-34.97 78.06-78.05 78.06-43.08 0-78.06-34.97-78.06-78.06 0-43.09 34.97-78.06 78.06-78.06 43.09 0 78.05 34.97 78.05 78.06z"></path></clipPath></defs><style> .s0 { fill: #e6ca00 } .s1 { fill: #feedc7 } .s2 { fill: #0f1633 } .s3 { fill: #ffffff } .s4 { fill: #daa520 } </style><g id="svg1"><g id="g166"><g id="Clip-Path" clip-path="url(#cp1)"><g><g id="g165"><path id="path2" class="s0" d="m3 80.8c0-42.8 34.8-77.7 77.7-77.7 42.8 0 77.6 34.9 77.6 77.7 0 42.9-34.8 77.7-77.6 77.7-42.9 0-77.7-34.8-77.7-77.7z"></path><path id="path3" class="s1" d="m7.1 80.8c0-40.6 33-73.6 73.6-73.6 40.6 0 73.6 33 73.6 73.6 0 40.6-33 73.6-73.6 73.6-40.7 0-73.6-32.9-73.6-73.6z"></path><path id="path4" class="s2" d="m22.7 80.8c0-32 26-58 58-58 31.9 0 58 26 58 58 0 32-26 58-58 58-32 0-58-26-58-58z"></path><path id="path18" class="s3" d="m80.6 26.3l-0.7 2h-2.1l1.7 1.4-0.5 2 1.6-1.3 1.6 1.3-0.5-2 1.7-1.4h-2.1l-0.7-2m6.9 0.3l-1 2-2.1-0.3 1.5 1.6-0.7 1.9 1.8-1 1.4 1.5-0.3-2.1 1.9-1.2-2.1-0.2-0.4-2.2m6.7 1.3l-1.1 1.9-2.1-0.5 1.3 1.7-1 1.8 2-0.8 1.1 1.6v-2.1l2-0.9-2.1-0.5-0.1-2.2m6.6 2.1l-1.4 1.7-1.9-0.7 1 1.8-1.2 1.7 2-0.6 1 1.8 0.2-2.1 2.1-0.7-1.9-0.7 0.1-2.2m6.2 2.9l-1.6 1.6-1.8-1 0.8 1.9-1.4 1.6 2-0.4 0.8 1.9 0.5-2 2.1-0.4-1.8-1zm5.8 3.8l-1.7 1.3-1.7-1.2 0.5 2-1.6 1.4 2.1-0.1 0.5 2 0.8-2 2.1-0.2-1.7-1.1c0 0 0.8-2.1 0.7-2.1zm5.4 4.3l-2 1.2-1.5-1.5 0.3 2.1-1.8 1.1 2.1 0.2 0.2 2.1 1.2-1.9 2 0.1-1.4-1.3zm4.7 5l-2.1 0.9-1.3-1.7v2.2l-1.9 0.8 2.1 0.5-0.1 2.1 1.4-1.7 2 0.3-1.3-1.5zm4.1 5.6l-2.2 0.6-1.1-1.8-0.2 2.1-2.1 0.7 2.1 0.7-0.4 2 1.6-1.5 1.9 0.6-1-1.6 1.4-1.8m3.3 6l-2.2 0.4-0.9-2-0.5 2.1-2.1 0.4 1.9 1-0.5 1.9 1.7-1.2 1.8 0.8-0.7-1.8 1.5-1.6m2.5 6.4l-2.2 0.1-0.6-2.1-0.7 2.1-2.1 0.1 1.7 1.2-0.8 1.9 1.8-1.1 1.8 1.1-0.6-1.9c0 0 1.8-1.4 1.7-1.4zm1.8 6.7l-2.3-0.2-0.3-2.2-1 2-2.1-0.2 1.6 1.5-1.1 1.7 2-0.8 1.6 1.3-0.3-2c0 0 1.9-1.1 1.9-1.1zm0.8 6.8l-2.1-0.5-0.1-2.1-1.2 1.8-2.1-0.5 1.3 1.7-1.1 1.6 2-0.6 1.4 1.5-0.1-2 2-0.9m0.1 6.9l-2.1-0.7 0.2-2.2-1.5 1.6-1.9-0.7 1 1.8-1.4 1.5 2.2-0.3 1.2 1.6 0.2-2 2.1-0.6m-0.8 6.8l-2.1-1 0.5-2.1-1.6 1.4-1.9-0.9 0.9 1.9-1.6 1.3h2.1l1 1.7 0.4-1.9c0 0 2.3-0.4 2.3-0.4zm-1.8 6.7l-1.9-1.2 0.8-2.1-1.7 1.2-1.8-1.1 0.6 2-1.7 1 2.1 0.3 0.8 1.8 0.6-1.8zm-2.6 6.5l-1.7-1.5 1.1-2-1.9 1-1.7-1.3 0.4 2.1-1.8 0.7 2.1 0.6 0.5 2 0.9-1.8c0 0 2.1 0.2 2.1 0.2zm-3.2 6l-1.6-1.7 1.3-1.8-2 0.7-1.5-1.5 0.1 2.1-1.9 0.6 2.1 0.8 0.2 2 1.1-1.6 2.1 0.5m-3.9 5.5l-1.4-1.9 1.5-1.6-2 0.4-1.4-1.7-0.1 2.2-1.9 0.3 1.8 1 0.1 2.1 1.2-1.4 2.2 0.6m-4.8 5l-1-2 1.7-1.4-2.1 0.1-1.2-1.8-0.4 2.1-1.9 0.1 1.7 1.3-0.2 1.9 1.4-1.2 2 0.9m-5.3 4.4l-0.7-2.1 1.8-1.2-2.1-0.1-0.9-2.1-0.7 2.2-2-0.1 1.6 1.3-0.4 2 1.5-1.1 1.9 1.2m-5.8 3.7l-0.5-2.2 2-1-2-0.3-0.6-2.1-1 2-2-0.4 1.4 1.6-0.7 1.9 1.7-0.9 1.6 1.4m-6.1 2.9l-0.2-2.2 2.1-0.8-2-0.5-0.4-2.2-1.2 1.9-1.9-0.7 1.2 1.8-0.9 1.8 1.8-0.6 1.5 1.5m-6.6 2.2l0.2-2.2 2.1-0.5-1.9-0.8-0.1-2.2-1.4 1.6-1.9-0.9 1 2-1.1 1.6 1.8-0.4c0 0 1.4 1.8 1.3 1.8zm-6.7 1.3l0.5-2.2 2-0.3-1.7-1 0.1-2.2-1.6 1.5-1.7-1 0.7 2-1.3 1.4 1.9-0.1zm-6.9 0.4l0.7-2.1 2.1 0.1-1.6-1.3 0.4-2.1-1.7 1.2-1.6-1.3 0.5 2.1-1.5 1.3 1.9 0.1c0 0 0.8 2 0.8 2zm-6.9-0.4l1-2 2.1 0.3-1.4-1.4 0.6-2.1-1.9 1-1.4-1.5 0.3 2.2-1.7 1 1.9 0.4c0 0 0.5 2.1 0.5 2.1zm-6.7-1.3l1.2-1.8 2.1 0.5-1.3-1.6 0.9-1.9-2 0.7-1.2-1.6v2.2l-1.9 0.8 1.9 0.6 0.3 2.1m-6.5-2.1l1.3-1.7 2.1 0.8-1.1-1.7 1.1-1.8-2.1 0.5-1-1.8-0.2 2.1-1.9 0.6 1.7 0.8 0.1 2.2m-6.3-3l1.6-1.4 1.9 1-0.8-1.8 1.3-1.7-2.1 0.3-0.8-2-0.5 2.2-2 0.3 1.6 1-0.2 2.1m-5.8-3.6l1.8-1.3 1.7 1.3-0.5-2 1.4-1.4h-2l-0.6-2-0.8 2-2 0.1 1.5 1.2-0.5 2.1m-5.3-4.4l1.9-1 1.5 1.5-0.3-2 1.7-1.3-2-0.3-0.3-2-1.1 1.8-2-0.1 1.4 1.4-0.8 2m-4.7-5l2.1-0.7 1.2 1.6v-2l1.9-1.1-2-0.5-0.1-2.1-1.2 1.7-2.1-0.3 1.2 1.6-1 1.8m-4.1-5.6l2.2-0.5 1.1 1.8 0.2-1.9 1.9-0.9-1.9-0.7 0.2-2.1-1.5 1.6-1.9-0.7 0.9 1.8zm-3.3-6.1l2.3-0.2 0.8 1.9 0.5-1.8 2-0.7-1.8-1 0.4-2-1.6 1.3-1.8-0.8 0.7 1.8-1.5 1.5m-2.5-6.4l2.2 0.1 0.6 2 0.7-1.7 2.1-0.4-1.7-1.3 0.7-2-1.8 1.2-1.7-1.1 0.5 1.9-1.6 1.3m-1.7-6.6l2.2 0.3 0.3 2.1 0.9-1.6 2.2-0.2-1.6-1.4 1-1.9-1.9 1-1.6-1.4 0.3 2c0 0-1.8 1.1-1.8 1.1zm-0.9-6.9l2.1 0.7 0.1 2.1 1.1-1.5 2.2 0.1-1.3-1.6 1.1-1.7-2 0.7-1.4-1.6v2l-1.9 0.8m0-6.8l2 0.9-0.1 2.1 1.3-1.4 2.1 0.4-1.1-1.8 1.3-1.5-2.1 0.4-1.2-1.7-0.2 2zm0.9-6.9l1.8 1.2-0.4 2 1.4-1.1 2.1 0.7-0.9-2 1.6-1.3-2.1 0.1-1.1-1.8-0.4 2-2.1 0.2m1.7-6.6l1.7 1.4-0.6 1.9 1.6-0.9 1.9 0.9-0.6-2 1.7-1.2-2.1-0.1-0.8-2-0.7 1.9c0 0-2.1 0.1-2.1 0.1zm2.6-6.4l1.5 1.6-0.9 1.9 1.7-0.8 1.8 1.2-0.4-2.1 1.8-1-2.1-0.3-0.4-2.1-1 1.8-2.1-0.2m3.4-6.1l1.2 1.9-1 1.7 1.7-0.5 1.7 1.3-0.2-2.1 2-0.7-2-0.6-0.2-2.1-1.2 1.6-2-0.5m4-5.5l1.1 2-1.3 1.5 1.8-0.3 1.5 1.6 0.1-2.1 2.1-0.5-2-0.8v-2.1l-1.3 1.4zm4.7-5l0.7 2.1-1.4 1.4h1.8l1.3 1.6 0.3-2 2.1-0.2-1.8-1.1 0.4-2.1-1.6 1.3-1.9-1m5.3-4.4l0.6 2.2-1.7 1.2 1.8 0.2 1.1 1.8 0.6-1.9 2.1 0.1-1.7-1.4 0.7-2.1-1.8 1.1zm5.8-3.7l0.3 2.3-1.8 0.9 1.8 0.5 0.8 1.9 0.9-1.8 2 0.3-1.4-1.5 0.9-2.1-1.9 0.9c0 0-1.6-1.4-1.6-1.4zm6.2-2.9v2.3l-1.9 0.7 1.8 0.7 0.5 2 1.2-1.7 1.9 0.5-1.2-1.7 1.1-1.9-2 0.7-1.4-1.6m6.6-2.2l-0.4 2.4-1.9 0.4 1.7 0.9 0.3 2.1 1.3-1.6 1.9 0.8-1.1-1.8 1.4-1.7-2 0.4-1.2-1.9m6.8-1.2l-0.7 2.2-2 0.2 1.5 1.1 0.1 2.1 1.5-1.4 1.8 1.1-0.8-2 1.5-1.5-2 0.1-0.9-1.9"></path><path id="path19" class="s2" d="m66.6 139.1l-0.3-0.1c-0.5 1.2-1.3-0.3-2.9-0.8-2.1-0.6-3.7 0.6-4.2 2-0.5 2 0.7 3.1 2.5 5 0.5 0.6 1.3 1.6 1 2.5-0.3 1-1.1 1.4-2.1 1.1-1.4-0.4-2.1-2-2-3.6l-0.4-0.1-0.6 3.5 0.3 0.1c0.7-1.1 1.1 0.4 2.8 0.8 1.5 0.5 3-0.3 3.5-1.9 0.9-3.1-3.3-4.4-3.3-6.8 0-1.4 1.2-2.3 2.4-2 1.7 0.5 2.4 2.2 2.4 3.9l0.4 0.1 0.5-3.7m-15.8-5.9l-2 2.2 0.5 0.2c1.7-1.5 2.8-1 3.9-0.4l2 0.9c0.3 0.1 0.2 0.5 0.1 0.8l-1.9 3.7-2-1c-1-0.5-1.7-1.2-1.1-2.3l-0.3-0.2-1.8 3.6 0.4 0.1c0.5-1.2 1.5-1 2.5-0.6l2 1-1.6 3.3c-0.1 0.4-0.5 0.5-0.9 0.3l-2.3-1.2c-1.1-0.5-1.2-1.4-0.9-2.3l-0.4-0.2-1 2.2 7.7 3.8 0.2-0.3c-1.1-0.6-1.1-1.1-0.9-1.6l3.7-7.6c0.3-0.4 0.7-0.8 1.8-0.3l0.1-0.3-7.9-3.8"></path><path id="path20" fill-rule="evenodd" class="s2" d="m38.1 138.5l2.4-10c0.1-0.7 0.5-1.8-0.3-2.2l0.2-0.3 3.3 2.4-0.2 0.3c-1.1-0.8-1.3-0.5-1.7 1.1l-0.4 1.5 3.5 2.5c0.5-0.4 1.9-1.1 2.2-1.6 0.4-0.5 0-0.9-0.4-1.2l0.1-0.3 2.6 1.9-0.1 0.2c-0.9-0.5-2 0.3-3.5 1.2l-7.4 4.7-0.3-0.2zm6.2-4.3l-3.1-2.2-1.2 4.8z"></path><path id="path21" class="s2" d="m33.9 119.1l-2.6 1.5 0.3 0.3c2.3-1 3.2 0.1 4.6 1.6 0.7 0.7 1 1.3 0.7 1.6l-6.1 5.9c-0.4 0.4-0.9 0.6-1.7-0.3l-0.3 0.2 3.2 3.3 0.2-0.2c-0.8-0.9-0.6-1.4-0.3-1.8l6.1-5.9c0.4-0.3 0.9-0.5 1.8 0.3l0.2-0.2z"></path><path id="path22" fill-rule="evenodd" class="s2" d="m21.3 116.7c-1-1.5-0.5-3.6 1.4-4.7 1.7-1.1 3.8-0.8 4.8 0.9 0.9 1.6 0.5 3.6-1.4 4.7-1.8 1.1-3.8 0.8-4.8-0.9zm4.2-0.1c1.9-1.1 2.4-2.5 1.7-3.5-1.1-1.4-3-0.8-3.9-0.2-1.4 0.9-2.5 2.2-1.7 3.5 0.9 1.3 2.2 1.3 3.9 0.2z"></path><path id="path23" class="s2" d="m24.1 106.8l-0.2 0.1c0.3 0.7 0.1 0.9-0.2 1.1l-2.4 1-0.5-1.2c-0.3-0.6-0.3-1.2 0.4-1.6l-0.1-0.1-2.2 1 0.1 0.1c0.7-0.3 1.1 0.2 1.4 0.8l0.5 1.2-2 0.9c-0.2 0.1-0.4 0.1-0.6-0.2l-0.5-1.2c-0.3-0.7-0.6-1.2 0.4-1.8l-0.1-0.2-1.4 0.6 2.2 4.9 0.2-0.1c-0.3-0.7-0.1-0.9 0.2-1.1l4.8-2.1c0.3-0.1 0.6-0.1 0.9 0.6l0.2-0.1-1.1-2.6m-3.7-9.6c0.2 0.7-0.1 0.9-0.4 1l-5.5 1.6-0.2-0.7c-0.2-0.7-0.3-1.2 0.9-1.8v-0.2l-1.7 0.6 1.6 5.4 1.7-0.4-0.1-0.2c-1.3 0.1-1.5-0.3-1.7-1l-0.2-0.7 5.5-1.6c0.3-0.1 0.6 0 0.8 0.7l0.2-0.1-0.7-2.7-0.2 0.1m-4.6-3.4l-2.2 0.4c-0.3 0.1-0.7 0-0.8-0.7h-0.2l0.5 2.8 0.2-0.1c-0.2-0.7 0.1-0.9 0.4-1l5.2-1c0.3 0 0.7 0.1 0.8 0.8l0.2-0.1-0.5-2.7h-0.2c0.1 0.8-0.2 1-0.5 1l-2.4 0.5-0.6-3 2.4-0.5c0.3 0 0.7 0.1 0.8 0.8l0.2-0.1-0.5-2.7h-0.2c0.2 0.8-0.1 1-0.4 1l-5.2 1c-0.3 0.1-0.7 0-0.8-0.7h-0.2l0.5 2.8 0.2-0.1c-0.1-0.7 0.2-0.9 0.5-1l2.3-0.4 0.5 3m2.4-11.8l-1.8-0.4v0.3c1.4 0.4 1.5 1.2 1.5 2l0.1 1.3c0 0.2-0.2 0.3-0.4 0.3l-2.5 0.2-0.1-1.4c-0.1-0.7 0.1-1.3 0.9-1.3v-0.2l-2.5 0.1v0.2c0.9 0 1.1 0.5 1.1 1.2l0.1 1.4-2.2 0.2c-0.3 0-0.4-0.2-0.5-0.4l-0.1-1.6c0-0.7 0.5-1.1 1-1.2v-0.3l-1.5 0.1 0.4 5.4h0.2c-0.1-0.8 0.2-1 0.6-1l5.2-0.3c0.3-0.1 0.7 0.1 0.7 0.8h0.2c0 0-0.4-5.4-0.4-5.4z"></path><path id="path24" fill-rule="evenodd" class="s2" d="m10.8 73.8c-0.5-0.1-1.1 0.1-1.2 1.2h-0.3l0.5-4.1c0.3-2.5 1.4-4.3 3.4-4 2.5 0.3 3.1 2.4 2.8 4.5q-0.1 0.7-0.2 1.3l3.6 0.5c0.5 0 1-0.1 1.2-1.3h0.3l-0.6 4.5h-0.3c0.2-1.2-0.3-1.5-0.8-1.6 0 0-8.4-1-8.4-1zm4.4-1.1c0-0.3 0.1-0.5 0.1-0.8 0.2-1.8-0.2-3-2.2-3.3-1.9-0.2-2.6 1.2-2.8 2.8-0.1 0.6 0 0.7 0.7 0.8zm5.5-7.2l-8.1-2.5c-0.4-0.1-1 0-1.4 1l-0.3-0.1 1.3-4.1c0.8-2.5 2.2-3.8 4.1-3.2 1.7 0.5 2.1 2.1 1.8 3.6l4.9-1.8c0.7-0.3 1.1-0.6 1.4-1.2l0.3 0.1-0.8 2.5-6.1 2.1-0.2 0.9 3.6 1.1c0.5 0.2 1.1 0.1 1.4-1l0.3 0.1-1.3 4.2-0.3-0.1c0.3-1.1-0.1-1.5-0.6-1.6zm-3.7-2.9c0.6-2.2 0.5-3.8-1.2-4.3-1.6-0.5-2.6 0.4-3 1.8-0.3 1-0.4 1.2 0.4 1.4 0 0 3.8 1.1 3.8 1.1z"></path><path id="path25" class="s2" d="m29.1 49l-2.2-2-0.2 0.4c1.5 1.8 1 2.9 0.4 4.1l-1 1.8c-0.2 0.3-0.6 0.3-0.8 0.1l-3.7-1.9 1.1-2.1c0.5-0.9 1.2-1.6 2.4-1l0.1-0.3-3.5-1.8-0.1 0.3c1.1 0.6 1 1.6 0.5 2.5l-1.1 2-3.2-1.7c-0.4-0.2-0.5-0.5-0.3-0.9l1.3-2.3c0.5-1 1.5-1.1 2.4-0.8l0.1-0.4-2.1-1.1-4 7.6 0.2 0.2c0.6-1.1 1.2-1 1.6-0.8l7.5 4c0.4 0.2 0.8 0.7 0.3 1.7l0.2 0.2 4.1-7.8m1.5-1.8l0.2-0.3c-0.9-0.8 0.8-1 1.8-2.4 1.3-1.8 0.7-3.7-0.5-4.6-1.6-1.2-3.1-0.4-5.5 0.6-0.8 0.3-2 0.7-2.7 0.1-0.9-0.6-0.9-1.5-0.4-2.3 0.9-1.2 2.6-1.3 4.1-0.7l0.3-0.3-3.2-1.9-0.2 0.3c0.8 1.1-0.6 1-1.7 2.4-0.9 1.2-0.7 3 0.6 3.9 2.7 1.9 5.3-1.6 7.6-0.7 1.3 0.4 1.8 1.9 1 2.9-1 1.4-2.8 1.5-4.4 1l-0.2 0.3zm0-15.8c-0.4-0.3-0.6-0.9 0.3-1.9l-0.3-0.2-3.2 3.5 0.2 0.3c0.9-1 1.5-0.8 1.8-0.5l6.2 5.8c0.4 0.3 0.6 0.9-0.3 1.8l0.2 0.3 3.3-3.6-0.2-0.2c-0.9 1-1.5 0.8-1.9 0.5l-6.2-5.8"></path><path id="path26" fill-rule="evenodd" class="s2" d="m42.8 33.7l-3.4 2.6-0.2-0.2c1-0.8 0.8-1.3 0.5-1.7l-5.2-6.7c-0.3-0.4-0.8-0.7-1.8 0.1l-0.2-0.3 3.3-2.6c3.3-2.5 6.4-2.6 8.7 0.4 2.2 2.7 1.7 5.7-1.7 8.4zm-1.9-0.5c0.4 0.5 0.8 0.4 1.1 0.2 2.7-1.9 3.1-4.5 1.2-7-2.1-2.6-4.8-2.7-7.1-0.8-0.7 0.4-0.7 0.6-0.2 1.2 0 0 5 6.4 5 6.4z"></path><path id="path27" class="s2" d="m56.6 25.2l-0.6-2.8-0.4 0.2c0.2 2.3-0.9 2.8-2.1 3.4l-1.9 1c-0.3 0.2-0.5-0.1-0.7-0.4l-1.8-3.7 2-1c1-0.5 1.9-0.6 2.5 0.5l0.3-0.1-1.8-3.5-0.3 0.1c0.6 1.2-0.1 1.9-1 2.4l-2.1 1-1.6-3.2c-0.2-0.4 0-0.8 0.3-0.9l2.4-1.2c1-0.5 1.8-0.1 2.4 0.7l0.3-0.2-1.1-2.1-7.7 3.9 0.2 0.3c1-0.6 1.5-0.2 1.7 0.2l3.9 7.6c0.2 0.4 0.2 1-0.8 1.6l0.1 0.2 7.8-3.9m7.8-12.9c-0.1-0.5 0-1.1 1.3-1.4l-0.1-0.3-3.7 1 0.1 0.3c1.2-0.3 1.6 0.1 1.8 0.6l1.8 6.5-8.2-6.1-2.7 0.8 0.1 0.3c0.8-0.2 1-0.1 1.6 0.3l0.2 0.1 2.4 8.3c0.1 0.4 0 1-1.3 1.4l0.1 0.3 3.7-1.1-0.1-0.3c-1.2 0.4-1.6-0.1-1.8-0.5l-2.1-7.4 9.5 6.9 0.2-0.1-2.7-9.6m11.7 7.7c-1.2 0.2-1.5-0.3-1.6-0.8l-1.1-9.1 1.2-0.1c1.2-0.2 1.9-0.3 2.5 1.8h0.4l-0.4-2.9-9.1 1.2 0.2 2.8h0.4c0.1-2.2 0.8-2.3 2-2.5l1.2-0.1 1.1 9c0.1 0.5-0.1 1.1-1.3 1.2v0.4l4.5-0.6v-0.3"></path><path id="path28" fill-rule="evenodd" class="s2" d="m90.7 15.6c-0.2 2-1.6 3.4-3.6 3.2-1.8-0.2-3.2-1.7-2.9-3.9 0.2-2.1 1.7-3.5 3.6-3.3 1.8 0.1 3.1 1.7 2.9 4zm-5.4-0.6c-0.2 2.1 0.6 3.4 1.8 3.4 1.8 0.1 2.4-1.8 2.5-3 0.1-1.6-0.3-3.3-1.8-3.4-1.5-0.1-2.3 1-2.5 3z"></path><path id="path29" class="s2" d="m94 19.8v-0.2c-0.7-0.2-0.8-0.5-0.7-0.8l0.5-2.5 1.3 0.3c0.7 0.1 1.2 0.4 1 1.2l0.2 0.1 0.6-2.4-0.3-0.1c-0.1 0.8-0.7 0.9-1.4 0.8l-1.3-0.3 0.5-2.2c0-0.3 0.2-0.4 0.5-0.3l1.3 0.2c0.7 0.2 1.3 0.2 1.2 1.4h0.2l0.3-1.4-5.2-1.2v0.2c0.7 0.2 0.8 0.6 0.7 0.9l-1.1 5.1c-0.1 0.3-0.3 0.6-1 0.4v0.2l2.7 0.6m9.9 2.8c-0.7-0.2-0.7-0.6-0.6-0.9l1.9-5.3 0.7 0.2c0.7 0.3 1.1 0.5 0.9 1.8l0.2 0.1 0.6-1.7-5.4-2-0.6 1.7 0.2 0.1c0.7-1.2 1.1-1.1 1.8-0.8l0.7 0.2-2 5.4c-0.1 0.2-0.3 0.5-1 0.3l-0.1 0.1 2.6 1 0.1-0.2m5.6-1.3l1.1-2.1c0.2-0.3 0.5-0.5 1.1-0.1l0.1-0.2-2.5-1.3-0.1 0.1c0.7 0.4 0.7 0.8 0.5 1l-2.4 4.7c-0.2 0.2-0.5 0.5-1.1 0.1l-0.1 0.2 2.4 1.3 0.1-0.2c-0.6-0.3-0.6-0.7-0.4-0.9l1.1-2.2 2.7 1.4-1.2 2.2c-0.1 0.3-0.4 0.5-1 0.1l-0.1 0.2 2.4 1.3 0.1-0.2c-0.6-0.3-0.6-0.7-0.4-0.9l2.4-4.7c0.2-0.3 0.5-0.5 1.1-0.1l0.1-0.2-2.5-1.3-0.1 0.2c0.7 0.3 0.7 0.7 0.5 0.9l-1.1 2.1c0 0-2.7-1.4-2.7-1.4zm7.8 8.9l1.4-1.2-0.3-0.2c-1.1 0.8-1.8 0.4-2.5 0l-1.1-0.7c-0.1-0.1-0.1-0.4 0-0.5l1.4-2.2 1.2 0.8c0.6 0.4 1 0.9 0.5 1.5l0.2 0.2 1.3-2.1-0.1-0.1c-0.5 0.7-1.1 0.5-1.6 0.1l-1.2-0.7 1.2-1.9c0.1-0.2 0.4-0.3 0.6-0.1l1.4 0.9c0.5 0.3 0.5 1 0.3 1.5l0.2 0.1 0.8-1.3-4.4-2.9-0.2 0.2c0.7 0.4 0.6 0.8 0.4 1l-2.8 4.4c-0.2 0.3-0.5 0.5-1.1 0.1l-0.1 0.2 4.5 2.9m7.4 3.1c-2.3 2.2-2.4 4-0.4 6.1 0.5 0.5 1.2 1 1.8 1.2 1.9 0.7 3.1-0.2 4.4-1.5l3.9-3.7c0.3-0.4 0.9-0.6 1.8 0.4l0.2-0.3-2.6-2.7-0.2 0.3c0.8 0.9 0.6 1.4 0.3 1.8l-3.9 3.7c-1.1 1.1-2.8 2.7-4.9 0.5-1.4-1.4-1.3-2.7 0.6-4.5l4.1-3.9c0.4-0.4 0.9-0.6 1.7 0.3l0.3-0.2-3.2-3.3-0.2 0.2c0.8 0.9 0.6 1.4 0.3 1.8 0 0-4 3.8-4 3.8zm17.7 14.2c0.4-0.2 1-0.3 1.7 0.8l0.3-0.1-2-3.4-0.3 0.2c0.7 1.2 0.4 1.6 0 1.9l-5.8 3.5 3.7-9.5-1.4-2.4-0.3 0.1c0.4 0.7 0.3 0.9 0.1 1.7l-0.1 0.2-7.3 4.4c-0.5 0.3-1 0.3-1.7-0.8l-0.3 0.2 2 3.3 0.3-0.2c-0.7-1.1-0.4-1.6 0-1.9l6.7-4-4.3 11 0.1 0.2 8.6-5.2m3.1 6.6c0.4-0.2 1-0.1 1.6 1.1l0.3-0.1-1.9-4.5-0.3 0.1c0.5 1.3 0.1 1.7-0.4 1.9l-7.8 3.3c-0.4 0.2-1 0.2-1.5-1l-0.3 0.1 1.9 4.4 0.3-0.1c-0.6-1.2-0.2-1.7 0.3-1.9zm-5.8 13c-0.3-1.1 0.2-1.5 0.6-1.6l8.9-2.4 0.3 1.2c0.3 1.1 0.5 1.8-1.5 2.7l0.1 0.4 2.7-0.8-2.4-8.9-2.8 0.7 0.1 0.3c2.2-0.2 2.4 0.6 2.7 1.7l0.3 1.1-8.8 2.4c-0.5 0.1-1.1 0-1.4-1.1l-0.3 0.1 1.2 4.3 0.3-0.1m1.3 12.3l2.9 0.5-0.1-0.5c-2.2-0.7-2.3-1.9-2.4-3.2l-0.2-2.1c0-0.3 0.3-0.4 0.6-0.5l4.2-0.3 0.2 2.2c0.1 1.1-0.2 2.1-1.5 2.2v0.3l4-0.3-0.1-0.4c-1.3 0.2-1.7-0.7-1.7-1.8l-0.2-2.3 3.6-0.3c0.4-0.1 0.7 0.2 0.7 0.6l0.2 2.6c0.1 1.2-0.6 1.8-1.5 2v0.4l2.4-0.2-0.7-8.6h-0.4c0.1 1.2-0.4 1.5-0.9 1.5l-8.4 0.8c-0.5 0-1.1-0.2-1.2-1.4l-0.3 0.1c0 0 0.8 8.7 0.8 8.7z"></path><path id="path30" fill-rule="evenodd" class="s2" d="m140.7 85.6l0.5-4.3h0.3c-0.1 1.2 0.4 1.5 0.9 1.6l8.4 0.9c0.5 0 1-0.2 1.1-1.4l0.4 0.1-0.5 4.1c-0.4 4.2-2.5 6.5-6.3 6.1-3.4-0.4-5.2-2.8-4.8-7.1zm9.7-0.2l-8.1-0.9c-0.6-0.1-0.8 0.3-0.9 0.7-0.5 3.3 1.2 5.4 4.3 5.7 3.3 0.4 5.2-1.5 5.5-4.5 0.1-0.8 0.1-1-0.7-1z"></path><path id="path31" class="s2" d="m136.8 101.9l-0.1 0.4c1 0.6-0.6 1.2-1.2 2.7-0.9 2.1 0.1 3.8 1.5 4.4 1.9 0.8 3.1-0.3 5.2-1.8 0.7-0.5 1.8-1.1 2.7-0.8 0.9 0.5 1.2 1.3 0.8 2.2-0.6 1.4-2.2 1.9-3.8 1.6l-0.2 0.4 3.4 1.1 0.2-0.3c-1-0.9 0.4-1.1 1.1-2.7 0.6-1.5 0.1-3.1-1.5-3.7-2.9-1.3-4.8 2.7-7.2 2.4-1.4-0.1-2.1-1.4-1.6-2.6 0.7-1.6 2.4-2.1 4.1-2l0.1-0.3-3.5-1m-6.9 14.1c0.7-1 1.3-0.9 1.7-0.6l7.6 4.9-0.6 1c-0.7 1-1.1 1.6-3.1 0.8l-0.2 0.3 2.5 1.5 5-7.7-2.4-1.7-0.2 0.3c1.6 1.5 1.2 2.1 0.6 3.2l-0.7 0.9-7.6-4.9c-0.4-0.3-0.8-0.8-0.1-1.8l-0.3-0.2-2.4 3.8 0.2 0.2"></path><path id="path32" fill-rule="evenodd" class="s2" d="m132.9 129.8l-9.6-3.6c-0.7-0.2-1.7-0.7-2.3 0l-0.2-0.2 2.8-3 0.3 0.2c-0.9 1-0.7 1.3 0.8 1.8l1.5 0.6 2.9-3.1c-0.3-0.6-0.9-2-1.3-2.5-0.4-0.3-0.9 0-1.3 0.4l-0.2-0.3 2.2-2.3 0.2 0.2c-0.6 0.8 0 2 0.7 3.6l3.7 7.9-0.2 0.3zm-3.5-6.7l-2.5 2.8 4.7 1.8z"></path><path id="path33" class="s2" d="m115.9 130c0.9-0.8 1.5-0.5 1.8-0.1l5.6 7.2-0.9 0.7c-1 0.7-1.6 1.2-3.2-0.3l-0.3 0.3 1.9 2.2 7.2-5.7-1.7-2.3-0.3 0.2c1 1.9 0.4 2.4-0.5 3.1l-0.9 0.8-5.6-7.2c-0.3-0.4-0.5-1 0.5-1.7l-0.2-0.3-3.6 2.8c0 0 0.2 0.3 0.2 0.3zm-10.8 5.8l0.6 2.9 0.4-0.2c-0.2-2.3 0.9-2.9 2.1-3.5l1.9-1c0.3-0.1 0.5 0.2 0.7 0.4l1.9 3.7-2.1 1.1c-1 0.5-1.9 0.6-2.5-0.6l-0.3 0.2 1.8 3.5 0.3-0.1c-0.6-1.2 0.1-1.9 1-2.4l2.1-1 1.6 3.2c0.2 0.4 0.1 0.7-0.3 0.9l-2.3 1.2c-1.1 0.5-1.9 0-2.5-0.7l-0.3 0.2 1.1 2.1 7.7-3.9-0.2-0.3c-1 0.5-1.5 0.2-1.7-0.3l-3.9-7.5c-0.2-0.5-0.2-1 0.8-1.6l-0.1-0.3-7.8 4m-2.6 0.9l-0.4 0.1c0.3 1.2-1.2 0.4-2.8 0.9-2.1 0.7-2.8 2.6-2.3 4 0.6 2 2.2 2.2 4.8 2.8 0.8 0.2 1.9 0.6 2.3 1.5 0.3 1-0.2 1.8-1.2 2.1-1.4 0.4-2.8-0.5-3.7-1.9l-0.4 0.1 1.5 3.4 0.3-0.2c0-1.3 1.1-0.3 2.8-0.8 1.5-0.5 2.3-2 1.8-3.6-1-3.1-5.2-1.8-6.6-3.9-0.7-1.1-0.3-2.5 1-2.9 1.6-0.5 3.1 0.5 4.1 1.8l0.4-0.1zm-30.9 8.6c0 0 1.5 0.4 1.7 1.5 0.3 1.3 1.3 1.9 1.3 1.9 0 0 0-1.6 0.6-1.8 1.2-0.4 1.5-1.5 1.5-1.5 0 0-1.2 0.8-2.6 0-1.3-0.7-2.5-0.2-2.5-0.2m19.6 0c0 0-1.5 0.5-1.7 1.6-0.3 1.2-1.4 1.8-1.4 1.8 0 0 0.1-1.5-0.5-1.7-1.3-0.4-1.5-1.6-1.5-1.6 0 0 1.1 0.9 2.5 0.1 1.3-0.7 2.6-0.2 2.6-0.2"></path></g></g></g><path class="s4" d="m76.5 36.8h8.8v17.7h26.6v8.8h-53.1v13.3h-8.9v-22.1h26.6zm-26.6 70.8h26.6v17.7h8.8v-17.7h26.6v-8.9h-62c0 0 0 8.9 0 8.9zm62-31h-62v8.8h53.1v13.3h8.9c0 0 0-22.1 0-22.1z"></path></g></g></svg> 